# AST/ASF file generated using VICON BodyLanguage
# -----------------------------------------------
:version 1.10
:name VICON
:units
  mass 1.0
  length 0.45
  angle deg
:documentation
   .ast/.asf automatically generated from VICON data using
   VICON BodyBuilder and BodyLanguage model FoxedUp or BRILLIANT.MOD
:root
   order TX TY TZ RX RY RZ
   axis XYZ
   position 0 0 0  
   orientation 0 0 0 
:bonedata
  begin
     id 1 
     name lhipjoint
     direction 0.535335 -0.74333 0.401095 
     length 2.04549 
     axis 0 0 0  XYZ
  end
  begin
     id 2 
     name lfemur
     direction 0.34202 -0.939693 0  
     length 6.95643  
     axis 0 0 20  XYZ
    dof rx ry rz
    limits (-160.0 20.0)
           (-70.0 70.0)
           (-60.0 70.0)
  end
  begin
     id 3 
     name ltibia
     direction 0.34192 -0.939729 0   
     length 5.55969   
     axis 0 0 20   XYZ
    dof rx
    limits (-10.0 170.0)
  end
  begin
     id 4 
     name lfoot
     direction 0.216943 -0.596046 0.773088   
     length 2.27918   
     axis -90 7.62852e-016 20   XYZ
    dof rx rz
    limits (-45.0 90.0)
           (-70.0 20.0)
  end
  begin
     id 5 
     name ltoes
     direction 1.53519e-011 -4.21748e-011 1   
     length 1.05562   
     axis -90 7.62852e-016 20   XYZ
    dof rx
    limits (-90.0 20.0)
  end
  begin
     id 6 
     name rhipjoint
     direction -0.576368 -0.719173 0.38806   
     length 2.1142  
     axis 0 0 0  XYZ 
  end
  begin
     id 7 
     name rfemur
     direction -0.34202 -0.939693 0   
     length 7.07928   
     axis 0 0 -20   XYZ
    dof rx ry rz
    limits (-160.0 20.0)
           (-70.0 70.0)
           (-70.0 60.0)
  end
  begin
     id 8 
     name rtibia
     direction -0.34202 -0.939693 0   
     length 5.79974   
     axis 0 0 -20   XYZ
    dof rx
    limits (-10.0 170.0)
 end
 begin
     id 9 
     name rfoot
     direction -0.189288 -0.520065 0.832888   
     length 2.42173  
     axis -90 -7.62852e-016 -20   XYZ
    dof rx rz
    limits (-45.0 90.0)
           (-20.0 70.0)
  end
  begin
     id 10 
     name rtoes
     direction -1.53574e-011 -4.21658e-011 1   
     length 1.14469   
     axis -90 -7.62852e-016 -20   XYZ
    dof rx
    limits (-90.0 20.0)
  end
  begin
     id 11 
     name lowerback
     direction -0.00135702 0.993803 0.111144   
     length 1.91308   
     axis 0 0 0   XYZ
    dof rx ry rz
    limits (-20.0 45.0)
           (-30.0 30.0)
           (-30.0 30.0)
  end
  begin
     id 12 
     name upperback
     direction -0.0056745 0.999813 0.0184631   
     length 1.9212   
     axis 0 0 0   XYZ
    dof rx ry rz
    limits (-20.0 45.0)
           (-30.0 30.0)
           (-30.0 30.0)
  end
  begin
     id 13 
     name thorax
     direction -0.00733434 0.999426 -0.0330788   
     length 1.94196   
     axis 0 0 0   XYZ
    dof rx ry rz
    limits (-20.0 45.0)
           (-30.0 30.0)
           (-30.0 30.0)
  end
  begin
     id 14 
     name lowerneck
     direction 0.0563074 0.996944 -0.0541571   
     length 2.34257   
     axis 0 0 0   XYZ
    dof rx ry rz
    limits (-20.0 45.0)
           (-30.0 30.0)
           (-30.0 30.0)
  end
  begin
     id 15 
     name upperneck
     direction -0.0544519 0.976166 -0.210085   
     length 2.32506   
     axis 0 0 0   XYZ
    dof rx ry rz
    limits (-20.0 45.0)
           (-30.0 30.0)
           (-30.0 30.0)
  end
  begin
     id 16
     name head
     direction -0.0226035 0.997615 -0.0652205  
     length 2.3648  
     axis 0 0 0   XYZ
    dof rx ry rz
    limits (-20.0 45.0)
           (-30.0 30.0)
           (-30.0 30.0)
  end
  begin
     id 17 
     name lclavicle
     direction 0.92109 0.381297 -0.0787716  
     length 4.0487  
     axis 0 0 0   XYZ
    dof ry rz
    limits (-20.0 10.0)
           (0.0 20.0)
  end
  begin
     id 18 
     name lhumerus
     direction 1 -4.48986e-011 3.56724e-027   
     length 4.94991   
     axis 180 -30 -90   XYZ
    dof rx ry rz
    limits (-60.0 90.0)
           (-90.0 90.0)
           (-90.0 90.0)
  end
  begin
     id 19
     name lradius
     direction 1 -4.48981e-011 8.62147e-027   
     length 2.7606   
     axis 180 -30 -90   XYZ
    dof rx
    limits (-10.0 170.0)
  end
  begin
     id 20
     name lwrist
     direction 1 -4.48989e-011 1.59799e-026   
     length 1.3803   
     axis -1.17785e-014 90 90   XYZ
    dof ry
    limits (-180.0 0.0)
 end
  begin
     id 21 
     name lhand
     direction 1 -4.48896e-011 3.19599e-026   
     length 0.843936   
     axis -2.03931e-014 90 90   XYZ
    dof rx rz
    limits (-90.0 90.0)
           (-45.0 45.0)
  end
  begin
     id 22 
     name lfingers
     direction 1 -4.48887e-011 6.39197e-026   
     length 0.680403   
     axis -4.07862e-014 90 90   XYZ
    dof rx
    limits (0.0 90.0)
  end
  begin
     id 23
     name lthumb
     direction 0.707107 -6.348e-011 0.707107   
     length 0.976926   
     axis -90 45 2.85299e-015   XYZ
    dof rx rz
    limits (-45.0 45.0)
           (-45.0 45.0)
  end
  begin
     id 24 
     name rclavicle
     direction -0.951104 0.307692 -0.026953   
     length 4.21801  
     axis 0 0 0   XYZ 
    dof ry rz
    limits (-10.0 20.0)
           (-20.0 0.0)
  end
  begin
     id 25 
     name rhumerus
     direction -1 -4.4896e-011 -1.8171e-018  
     length 4.32982   
     axis 180 30 90   XYZ
    dof rx ry rz
    limits (-90.0 60.0)
           (-90.0 90.0)
           (-90.0 90.0)
  end
  begin
     id 26 
     name rradius
     direction -1 -4.48959e-011 8.25165e-027   
     length 3.20057   
     axis 180 30 90   XYZ
    dof rx
    limits (-10.0 170.0)
  end
  begin
     id 27 
     name rwrist
     direction -1 -4.48997e-011 1.59799e-026   
     length 1.60029   
     axis -1.17785e-014 -90 -90   XYZ
    dof ry
    limits (-180.0 0.0)
  end
  begin
     id 28
     name rhand
     direction -1 -4.49023e-011 3.19599e-026   
     length 0.960433   
     axis -2.03931e-014 -90 -90   XYZ
    dof rx rz
    limits (-90.0 90.0)
           (-45.0 45.0)
  end
  begin
     id 29
     name rfingers
     direction -1 -4.48802e-011 6.39197e-026   
     length 0.774326   
     axis -4.07862e-014 -90 -90   XYZ
    dof rx
    limits (0.0 90.0)
  end
  begin
     id 30
     name rthumb
     direction -0.707107 -6.34876e-011 0.707107   
     length 1.11178   
     axis -90 -45 -2.85299e-015   XYZ
    dof rx rz
    limits (-45.0 45.0)
           (-45.0 45.0)
  end
:hierarchy
  begin
    root lhipjoint rhipjoint lowerback
    lhipjoint lfemur
    lfemur ltibia
    ltibia lfoot
    lfoot ltoes
    rhipjoint rfemur
    rfemur rtibia
    rtibia rfoot
    rfoot rtoes
    lowerback upperback
    upperback thorax
    thorax lowerneck lclavicle rclavicle
    lowerneck upperneck
    upperneck head
    lclavicle lhumerus
    lhumerus lradius
    lradius lwrist
    lwrist lhand lthumb
    lhand lfingers
    rclavicle rhumerus
    rhumerus rradius
    rradius rwrist
    rwrist rhand rthumb
    rhand rfingers
end

#!OML:ASF C:\KaitlinTest1\Natural Motions\Nikki\Session 2\Nikki.ASF
:FULLY-SPECIFIED
:DEGREES
235
root -18.903 16.6308 5.00891 -153.068 85.7214 -162.891
lowerback -13.2967 -1.70864 -0.0230894
upperback -3.95667 -2.05984 -0.48402
thorax 3.27209 -0.946676 -0.813107
lowerneck -1.94005 1.61927 8.41933
upperneck 27.231 3.8468 -5.50669
head 9.0715 2.53633 -2.96751
rclavicle 2.66123e-014 9.14409e-015
rhumerus -42.427 -22.4008 -79.0212
rradius 18.327
rwrist 29.3205
rhand -35.7947 2.94099
rfingers 7.12502
rthumb -8.91167 -26.8508
lclavicle 2.66123e-014 9.14409e-015
lhumerus -42.1602 16.2138 80.364
lradius 23.9403
lwrist -39.9329
lhand -32.8936 3.6528
lfingers 7.12502
lthumb -6.11154 33.5446
rfemur -7.49147 -16.3763 20.9572
rtibia 10.7493
rfoot -10.3339 11.571
rtoes 3.18055e-014
lfemur -10.1014 12.0406 -17.9314
ltibia 10.1539
lfoot -2.28154 -16.7902
ltoes -1.59028e-015
236
root -18.903 16.6305 5.00893 -152.973 85.7322 -162.779
lowerback -13.2858 -1.7075 -0.0234764
upperback -3.96541 -2.05849 -0.475174
thorax 3.25741 -0.945965 -0.802952
lowerneck -1.89977 1.63139 8.42552
upperneck 27.2275 3.87216 -5.52045
head 9.06513 2.54891 -2.97149
rclavicle -3.15571e-015 -1.43125e-014
rhumerus -42.4862 -22.5009 -78.8924
rradius 18.2716
rwrist 29.5069
rhand -35.8316 3.12411
rfingers 7.12502
rthumb -8.94729 -26.6662
lclavicle -3.15571e-015 -1.43125e-014
lhumerus -42.2129 16.23 80.3603
lradius 23.9814
lwrist -39.8941
lhand -32.8487 3.62172
lfingers 7.12502
lthumb -6.06813 33.5148
rfemur -7.48085 -16.3734 20.9564
rtibia 10.7561
rfoot -10.3444 11.5898
rtoes -1.00983e-013
lfemur -10.0781 12.0459 -17.9235
ltibia 10.1472
lfoot -2.28804 -16.7843
ltoes -1.04958e-013
237
root -18.903 16.6311 5.00905 -153.079 85.7594 -162.896
lowerback -13.2906 -1.70166 -0.0434401
upperback -3.97282 -2.04774 -0.475073
thorax 3.25312 -0.940513 -0.78992
lowerneck -1.9208 1.63837 8.40176
upperneck 27.2585 3.87939 -5.49494
head 9.07982 2.55291 -2.9579
rclavicle -1.11319e-014 -1.03368e-014
rhumerus -42.4787 -22.451 -78.9232
rradius 18.2659
rwrist 29.3514
rhand -35.8905 3.23873
rfingers 7.12502
rthumb -9.00412 -26.5491
lclavicle -1.11319e-014 -1.03368e-014
lhumerus -42.2086 16.2283 80.3868
lradius 23.9436
lwrist -39.8847
lhand -32.9687 3.62329
lfingers 7.12502
lthumb -6.18404 33.513
rfemur -7.4989 -16.3562 20.941
rtibia 10.762
rfoot -10.3443 11.5893
rtoes -6.44062e-014
lfemur -10.0781 12.0158 -17.941
ltibia 10.135
lfoot -2.29446 -16.7201
ltoes -4.77083e-014
238
root -18.9038 16.6312 5.00926 -152.819 85.7437 -162.631
lowerback -13.2988 -1.69748 -0.0124551
upperback -3.9617 -2.0467 -0.474632
thorax 3.26809 -0.940085 -0.807202
lowerneck -1.92736 1.63624 8.38731
upperneck 27.2515 3.87096 -5.47432
head 9.07733 2.54891 -2.94881
rclavicle 7.47927e-015 5.96354e-015
rhumerus -42.4747 -22.4396 -78.9511
rradius 18.2902
rwrist 29.3592
rhand -35.8647 3.12088
rfingers 7.12502
rthumb -8.97924 -26.668
lclavicle 7.47927e-015 5.96354e-015
lhumerus -42.1996 16.2594 80.3542
lradius 23.944
lwrist -39.9977
lhand -32.9506 3.60273
lfingers 7.12502
lthumb -6.1665 33.493
rfemur -7.49506 -16.3307 20.9666
rtibia 10.7637
rfoot -10.3532 11.5607
rtoes 1.19271e-014
lfemur -10.0789 12.0416 -17.9151
ltibia 10.1328
lfoot -2.27956 -16.7628
ltoes 0
239
root -18.9051 16.6314 5.01 -152.867 85.7491 -162.673
lowerback -13.2914 -1.69281 -0.0210504
upperback -3.95782 -2.03958 -0.477378
thorax 3.26844 -0.936681 -0.803958
lowerneck -1.91357 1.63441 8.42185
upperneck 27.2377 3.87627 -5.5189
head 9.07156 2.55067 -2.96991
rclavicle -1.28962e-014 -3.97569e-015
rhumerus -42.47 -22.4419 -78.9579
rradius 18.2919
rwrist 29.3544
rhand -35.8554 3.12037
rfingers 7.12502
rthumb -8.9703 -26.6689
lclavicle -1.28962e-014 -3.97569e-015
lhumerus -42.1875 16.226 80.3799
lradius 23.944
lwrist -39.9174
lhand -32.9471 3.56705
lfingers 7.12502
lthumb -6.16317 33.4574
rfemur -7.50331 -16.3493 20.9684
rtibia 10.7783
rfoot -10.3618 11.5724
rtoes -3.33958e-014
lfemur -10.0674 12.0348 -17.9154
ltibia 10.1109
lfoot -2.25588 -16.7419
ltoes -3.18055e-014
240
root -18.9051 16.6322 5.01033 -152.573 85.7549 -162.38
lowerback -13.2779 -1.69105 -0.00558026
upperback -3.97734 -2.03908 -0.467549
thorax 3.24051 -0.936235 -0.801549
lowerneck -1.89431 1.63649 8.41513
upperneck 27.2613 3.88717 -5.52507
head 9.07711 2.55622 -2.97032
rclavicle 1.94312e-014 1.43125e-014
rhumerus -42.4852 -22.3688 -78.9842
rradius 18.278
rwrist 29.3281
rhand -35.8951 3.11527
rfingers 7.12502
rthumb -9.00859 -26.6724
lclavicle 1.94312e-014 1.43125e-014
lhumerus -42.2339 16.2845 80.3422
lradius 23.9608
lwrist -39.9708
lhand -32.8922 3.54535
lfingers 7.12502
lthumb -6.11017 33.4372
rfemur -7.5074 -16.3079 20.9893
rtibia 10.7858
rfoot -10.3607 11.5498
rtoes 2.62396e-014
lfemur -10.0678 12.0477 -17.8939
ltibia 10.1007
lfoot -2.2429 -16.7555
ltoes 1.11319e-014
241
root -18.9048 16.6321 5.00996 -153.027 85.7747 -162.813
lowerback -13.2672 -1.69153 -0.0474373
upperback -3.96561 -2.03465 -0.473725
thorax 3.24832 -0.934333 -0.783643
lowerneck -1.8861 1.64218 8.404
upperneck 27.2349 3.89181 -5.51474
head 9.06624 2.5575 -2.96422
rclavicle 2.04251e-014 5.96354e-015
rhumerus -42.4791 -22.389 -78.9669
rradius 18.2648
rwrist 29.3437
rhand -35.9051 3.1789
rfingers 7.12502
rthumb -9.01825 -26.6083
lclavicle 2.04251e-014 5.96354e-015
lhumerus -42.2178 16.2233 80.4078
lradius 23.9608
lwrist -39.8294
lhand -32.9661 3.54475
lfingers 7.12502
lthumb -6.18152 33.4346
rfemur -7.48425 -16.3747 20.9378
rtibia 10.7826
rfoot -10.3506 11.6117
rtoes 6.36111e-015
lfemur -10.035 12.0167 -17.9306
ltibia 10.1032
lfoot -2.25295 -16.736
ltoes -1.90833e-014
242
root -18.9049 16.6319 5.01044 -152.827 85.7789 -162.617
lowerback -13.2693 -1.68144 -0.0296207
upperback -3.97463 -2.02294 -0.47946
thorax 3.23933 -0.928367 -0.797693
lowerneck -1.87552 1.63401 8.42134
upperneck 27.246 3.8815 -5.51604
head 9.0678 2.55513 -2.96874
rclavicle 2.54693e-014 4.37326e-015
rhumerus -42.5023 -22.4194 -78.9592
rradius 18.2669
rwrist 29.3598
rhand -35.8913 3.16243
rfingers 7.12502
rthumb -9.00488 -26.6254
lclavicle 2.54693e-014 4.37326e-015
lhumerus -42.263 16.2718 80.3431
lradius 23.9823
lwrist -40.0009
lhand -32.8982 3.57038
lfingers 7.12502
lthumb -6.11596 33.4621
rfemur -7.49732 -16.3515 20.9547
rtibia 10.7917
rfoot -10.3516 11.6025
rtoes 1.98785e-014
lfemur -10.0308 12.0101 -17.916
ltibia 10.0874
lfoot -2.25551 -16.695
ltoes 7.95139e-015
